<svg width="54" height="60" viewBox="0 0 54 60" fill="none" xmlns="http://www.w3.org/2000/svg">
<path d="M51.6018 16.1808C51.5986 16.1749 51.5972 16.1685 51.5938 16.1627C51.5928 16.1608 51.5913 16.1594 51.5902 16.1576C51.3217 15.6971 50.9353 15.3164 50.4708 15.0549L28.4708 2.67993C28.0212 2.42898 27.5149 2.29724 27 2.29724C26.4851 2.29724 25.9788 2.42898 25.5292 2.67993L3.52917 15.0549C3.06367 15.3171 2.67667 15.6989 2.4082 16.1608C2.40674 16.1633 2.40478 16.1652 2.40332 16.1677C2.39978 16.1742 2.39819 16.1811 2.39477 16.1876C2.13682 16.639 2.00077 17.1498 2 17.6697V42.3303C2.00039 42.8626 2.14218 43.3851 2.41087 43.8446C2.67956 44.304 3.06549 44.6838 3.52917 44.9451L25.5293 57.3201C25.9584 57.5592 26.4397 57.6892 26.9308 57.6984C26.952 57.7 26.9722 57.7051 26.9938 57.7053H27.0028C27.0279 57.7053 27.0514 57.6998 27.0761 57.698C27.5649 57.6877 28.0437 57.558 28.4709 57.3201L50.4709 44.9451C50.9345 44.6838 51.3205 44.304 51.5891 43.8446C51.8578 43.3851 51.9996 42.8626 52 42.3303V17.6697C51.9993 17.1472 51.862 16.6339 51.6018 16.1808ZM26.5098 4.4231C26.6596 4.33945 26.8284 4.29553 27 4.29553C27.1716 4.29553 27.3404 4.33945 27.4902 4.4231L48.968 16.5043L27.2324 28.8527L5.04736 16.4957L26.5098 4.4231ZM4.50976 43.2019C4.3552 43.1148 4.22655 42.9882 4.13698 42.8351C4.04741 42.6819 4.00013 42.5077 4 42.3303V18.2017L26.2321 30.5847L26.0149 55.2986L4.50976 43.2019ZM49.4902 43.2019L28.0151 55.2817L28.2322 30.5849L50 18.2183V42.3303C49.9999 42.5077 49.9526 42.6819 49.863 42.8351C49.7735 42.9882 49.6448 43.1148 49.4902 43.2019Z" stroke="url(#paint0_linear_343_19)" stroke-width="3.712"/>
<defs>
<linearGradient id="paint0_linear_343_19" x1="27" y1="2.29724" x2="27" y2="71" gradientUnits="userSpaceOnUse">
<stop stop-color="white"/>
<stop offset="1" stop-opacity="0"/>
</linearGradient>
</defs>
</svg>
