<svg width="9" height="7" viewBox="0 0 9 7" fill="none" xmlns="http://www.w3.org/2000/svg">
<path d="M8.47808 0.739422C8.42313 0.683747 8.35777 0.639561 8.2858 0.609404C8.21377 0.579248 8.13654 0.563721 8.05854 0.563721C7.98054 0.563721 7.9033 0.579248 7.83127 0.609404C7.7593 0.639561 7.69395 0.683747 7.63899 0.739422L3.23672 5.17059L1.38718 3.30547C1.33014 3.25005 1.26282 3.20651 1.18903 3.17729C1.11526 3.14806 1.03647 3.13375 0.957186 3.13511C0.877897 3.13648 0.799655 3.15353 0.726926 3.1853C0.654203 3.21708 0.588411 3.26294 0.533315 3.32032C0.478218 3.37764 0.434899 3.44529 0.40582 3.51948C0.376748 3.59361 0.362489 3.67285 0.36386 3.7525C0.365231 3.83222 0.382207 3.91086 0.413815 3.98398C0.445429 4.0571 0.491053 4.12321 0.548087 4.17863L2.81718 6.45954C2.87211 6.51519 2.93747 6.55939 3.00947 6.58956C3.08148 6.61968 3.15872 6.63524 3.23672 6.63524C3.31473 6.63524 3.39195 6.61968 3.46398 6.58956C3.53595 6.55939 3.60131 6.51519 3.65626 6.45954L8.47808 1.61258C8.53806 1.55696 8.58592 1.48946 8.61866 1.41432C8.65139 1.33918 8.66829 1.25803 8.66829 1.176C8.66829 1.09397 8.65139 1.01283 8.61866 0.937689C8.58592 0.86255 8.53806 0.795043 8.47808 0.739422Z" fill="white"/>
</svg>
